<svg xmlns="http://www.w3.org/2000/svg" viewBox="0 0 600 430" role="img" aria-label="An invisible dropper leaves stationary segments behind, so the body follows the path" class="chalkboard"><title>An invisible dropper leaves stationary segments behind, so the body follows the path</title><defs><filter id="ch-10-trail-c" x="-5%" y="-5%" width="110%" height="110%"><feTurbulence type="fractalNoise" baseFrequency="0.8" numOctaves="2" seed="7" result="n"/><feDisplacementMap in="SourceGraphic" in2="n" scale="2.6" xChannelSelector="R" yChannelSelector="G" result="d"/><feTurbulence type="fractalNoise" baseFrequency="1.6" numOctaves="1" seed="3" result="g"/><feColorMatrix in="g" type="matrix" values="0 0 0 0 0  0 0 0 0 0  0 0 0 0 0  0 0 0 -2.2 1.75" result="m"/><feComposite in="d" in2="m" operator="in"/></filter><filter id="ch-10-trail-t"><feTurbulence type="fractalNoise" baseFrequency="0.9" numOctaves="1" seed="5" result="n"/><feDisplacementMap in="SourceGraphic" in2="n" scale="1.3" xChannelSelector="R" yChannelSelector="G"/></filter></defs><rect x="3" y="3" width="594" height="424" rx="10" fill="#2c4a3a" stroke="#6b4a2e" stroke-width="6"/><ellipse cx="150" cy="129" rx="132" ry="56.8" fill="#ffffff" opacity="0.035"/><ellipse cx="450" cy="301" rx="180" ry="77.4" fill="#ffffff" opacity="0.035"/><ellipse cx="360" cy="64.5" rx="90" ry="38.7" fill="#ffffff" opacity="0.035"/><g filter="url(#ch-10-trail-c)"><circle cx="321.4" cy="110" r="30" fill="#36584a" stroke="#efeee6" stroke-width="3"/><circle cx="308.1" cy="140" r="28.8" fill="#36584a" stroke="#efeee6" stroke-width="3" opacity="0.93"/><circle cx="291.8" cy="170" r="27.6" fill="#36584a" stroke="#efeee6" stroke-width="3" opacity="0.86"/><circle cx="274.9" cy="200" r="26.4" fill="#36584a" stroke="#efeee6" stroke-width="3" opacity="0.79"/><circle cx="260.2" cy="230" r="25.2" fill="#36584a" stroke="#efeee6" stroke-width="3" opacity="0.72"/><circle cx="250.4" cy="260" r="24" fill="#36584a" stroke="#efeee6" stroke-width="3" opacity="0.65"/><circle cx="247.5" cy="290" r="22.8" fill="#36584a" stroke="#efeee6" stroke-width="3" opacity="0.58"/><circle cx="252.7" cy="320" r="21.6" fill="#36584a" stroke="#efeee6" stroke-width="3" opacity="0.51"/><circle cx="265.8" cy="350" r="20.4" fill="#36584a" stroke="#efeee6" stroke-width="3" opacity="0.44"/><circle cx="285.2" cy="380" r="19.2" fill="#36584a" stroke="#efeee6" stroke-width="3" opacity="0.37"/><circle cx="308.1" cy="410" r="18" fill="#36584a" stroke="#efeee6" stroke-width="3" opacity="0.3"/><g class="fig"><circle cx="330" cy="80" r="40" fill="#3a6670" stroke="#efeee6" stroke-width="3"/><circle cx="320.4" cy="60.6" r="12" fill="#36584a" stroke="#efeee6" stroke-width="3"/><circle cx="322.4" cy="57.1" r="5" fill="#36584a" stroke="#efeee6" stroke-width="3"/><circle cx="351.6" cy="78.6" r="12" fill="#36584a" stroke="#efeee6" stroke-width="3"/><circle cx="353.6" cy="75.1" r="5" fill="#36584a" stroke="#efeee6" stroke-width="3"/><polygon points="352.6,46.9 363.6,27.8 358.4,24.8 347.4,43.9" fill="#36584a" stroke="#efeee6" stroke-width="3"/><polygon points="291.8,104.1 289.3,108.5 325.7,129.5 328.2,125.1" fill="none" stroke="#efeee6" stroke-width="3" stroke-dasharray="7 6"/></g><path d="M430.2,119.6 Q371.2,142.8 312.5,119" fill="none" stroke="#f6e27a" stroke-width="3.5" stroke-linecap="round"/><path d="M321.9,130.5 L312.5,119 L327.2,117.3" fill="none" stroke="#f6e27a" stroke-width="3.5" stroke-linecap="round" stroke-linejoin="round"/><path d="M354.9,296.6 Q301.5,289.1 255.1,261.7" fill="none" stroke="#f6e27a" stroke-width="3.5" stroke-linecap="round"/><path d="M262.6,274.4 L255.1,261.7 L269.9,262.1" fill="none" stroke="#f6e27a" stroke-width="3.5" stroke-linecap="round" stroke-linejoin="round"/><path d="M198.2,401.5 Q249.4,421.3 303.1,409.6" fill="none" stroke="#f6e27a" stroke-width="3.5" stroke-linecap="round"/><path d="M288.9,405.4 L303.1,409.6 L291.9,419.4" fill="none" stroke="#f6e27a" stroke-width="3.5" stroke-linecap="round" stroke-linejoin="round"/></g><text filter="url(#ch-10-trail-t)" font-family="Caveat, 'Segoe Print', 'Comic Sans MS', cursive" font-size="33" font-weight="700" fill="#f6e27a" text-anchor="middle" dominant-baseline="middle"><tspan x="520" y="88.7">dropper:</tspan><tspan x="520" y="120">invisible, at</tspan><tspan x="520" y="151.3">the back</tspan></text><text filter="url(#ch-10-trail-t)" font-family="Caveat, 'Segoe Print', 'Comic Sans MS', cursive" font-size="33" font-weight="700" fill="#f6e27a" text-anchor="middle" dominant-baseline="middle"><tspan x="450" y="314.3">each piece: speed 0,</tspan><tspan x="450" y="345.7">stays where dropped</tspan></text><text filter="url(#ch-10-trail-t)" font-family="Caveat, 'Segoe Print', 'Comic Sans MS', cursive" font-size="33" font-weight="700" fill="#f6e27a" text-anchor="middle" dominant-baseline="middle"><tspan x="115" y="379.3">gone after</tspan><tspan x="115" y="410.7">its Lifetime</tspan></text></svg>